<svg xmlns="http://www.w3.org/2000/svg" viewBox="0 0 256 256" role="img" aria-labelledby="title desc">
  <title id="title">PoLarIS ice sheet logo concept</title>
  <desc id="desc">A polar ice sheet, elevation contours, and glacier flow lines.</desc>
  <defs>
    <linearGradient id="ice-fill" x1="72" y1="48" x2="188" y2="214" gradientUnits="userSpaceOnUse">
      <stop offset="0" stop-color="#ffffff"/>
      <stop offset="0.55" stop-color="#c7eef6"/>
      <stop offset="1" stop-color="#73cfe3"/>
    </linearGradient>
    <linearGradient id="ocean-fill" x1="38" y1="32" x2="220" y2="222" gradientUnits="userSpaceOnUse">
      <stop offset="0" stop-color="#16384b"/>
      <stop offset="1" stop-color="#0b2231"/>
    </linearGradient>
  </defs>

  <rect width="256" height="256" rx="42" fill="url(#ocean-fill)"/>
  <circle cx="128" cy="128" r="91" fill="none" stroke="#2c6d82" stroke-width="3" opacity="0.75"/>
  <circle cx="128" cy="128" r="62" fill="none" stroke="#2c6d82" stroke-width="2" opacity="0.55"/>
  <path d="M128 32v192M32 128h192" stroke="#2c6d82" stroke-width="2" opacity="0.45"/>

  <path
    d="M128 45c21 13 47 19 57 42 8 19-8 35-4 55 4 19 21 36 9 53-13 18-42 6-62 13-20 7-41 24-59 10-18-13-6-40-16-59-10-20-37-34-30-56 7-23 38-23 55-39 15-14 27-31 50-19Z"
    fill="url(#ice-fill)"
    stroke="#e7fbff"
    stroke-width="5"
    stroke-linejoin="round"
  />

  <path d="M86 109c21-16 50-22 82-15" fill="none" stroke="#4caeca" stroke-width="5" stroke-linecap="round"/>
  <path d="M74 139c34-17 73-18 115-4" fill="none" stroke="#2d90ad" stroke-width="5" stroke-linecap="round"/>
  <path d="M82 169c31-8 63-5 96 10" fill="none" stroke="#66c7db" stroke-width="5" stroke-linecap="round"/>

  <path d="M103 91c15-9 34-11 51-4" fill="none" stroke="#ffffff" stroke-width="4" stroke-linecap="round" opacity="0.9"/>
  <path d="M92 124c25-12 56-14 88-3" fill="none" stroke="#ffffff" stroke-width="3" stroke-linecap="round" opacity="0.75"/>
  <path d="M103 156c20-6 43-4 68 6" fill="none" stroke="#ffffff" stroke-width="3" stroke-linecap="round" opacity="0.65"/>
</svg>
